<svg width="311" height="138" viewBox="0 0 311 138" fill="none" xmlns="http://www.w3.org/2000/svg">
<path d="M139.596 0L111.123 5.19475L130.974 28.7709L145.247 26.107L139.596 0ZM89.8234 9.05752L75.551 11.6549L95.4745 35.1645L109.674 32.5671L89.8234 9.05752ZM54.3234 15.4511L40.0509 18.1816L59.9744 41.6912L74.1744 39.0938L54.3234 15.4511ZM18.7509 22.111L11.6509 23.3764C7.88636 24.0678 4.57413 26.1043 2.44151 29.0387C0.308893 31.9731 -0.46979 35.5655 0.276436 39.0272L3.10195 52.0807L38.602 45.6206L18.7509 22.111ZM3.10195 52.0807V118.68C3.10195 122.213 4.62855 125.601 7.34591 128.099C10.0633 130.597 13.7488 132 17.5918 132H133.51C141.552 132 148 126.073 148 118.68V52.0807H3.10195Z" fill="#6030B1"/>
<path d="M186.2 75.08V103H180.6V84.84L173.12 103H168.88L161.36 84.84V103H155.76V75.08H162.12L171 95.84L179.88 75.08H186.2ZM205.497 103.28C202.883 103.28 200.483 102.667 198.297 101.44C196.11 100.213 194.377 98.52 193.097 96.36C191.817 94.1733 191.177 91.7067 191.177 88.96C191.177 86.24 191.817 83.8 193.097 81.64C194.377 79.4533 196.11 77.7467 198.297 76.52C200.483 75.2933 202.883 74.68 205.497 74.68C208.137 74.68 210.537 75.2933 212.697 76.52C214.883 77.7467 216.603 79.4533 217.857 81.64C219.137 83.8 219.777 86.24 219.777 88.96C219.777 91.7067 219.137 94.1733 217.857 96.36C216.603 98.52 214.883 100.213 212.697 101.44C210.51 102.667 208.11 103.28 205.497 103.28ZM205.497 98.28C207.177 98.28 208.657 97.9067 209.937 97.16C211.217 96.3867 212.217 95.2933 212.937 93.88C213.657 92.4667 214.017 90.8267 214.017 88.96C214.017 87.0933 213.657 85.4667 212.937 84.08C212.217 82.6667 211.217 81.5867 209.937 80.84C208.657 80.0933 207.177 79.72 205.497 79.72C203.817 79.72 202.323 80.0933 201.017 80.84C199.737 81.5867 198.737 82.6667 198.017 84.08C197.297 85.4667 196.937 87.0933 196.937 88.96C196.937 90.8267 197.297 92.4667 198.017 93.88C198.737 95.2933 199.737 96.3867 201.017 97.16C202.323 97.9067 203.817 98.28 205.497 98.28ZM249.823 75.08L239.583 103H232.783L222.543 75.08H228.543L236.223 97.28L243.863 75.08H249.823ZM259.58 75.08V103H253.98V75.08H259.58ZM283.153 75.08V79.6H271.513V86.76H280.433V91.2H271.513V103H265.913V75.08H283.153ZM310.124 75.08L300.684 93.28V103H295.084V93.28L285.604 75.08H291.924L297.924 87.84L303.884 75.08H310.124Z" fill="#6030B1"/>
<path d="M198.7 133.725C199.169 133.725 199.55 133.344 199.55 132.875C199.55 132.406 199.169 132.025 198.7 132.025C198.231 132.025 197.85 132.406 197.85 132.875C197.85 133.344 198.231 133.725 198.7 133.725Z" fill="#D0D0D0"/>
<path d="M201.35 133.7C201.819 133.7 202.2 133.319 202.2 132.85C202.2 132.381 201.819 132 201.35 132C200.881 132 200.5 132.381 200.5 132.85C200.5 133.319 200.881 133.7 201.35 133.7Z" fill="#D0D0D0"/>
<path d="M202.225 136.15C202.694 136.15 203.075 135.769 203.075 135.3C203.075 134.831 202.694 134.45 202.225 134.45C201.756 134.45 201.375 134.831 201.375 135.3C201.375 135.769 201.756 136.15 202.225 136.15Z" fill="#D0D0D0"/>
<path d="M200.025 137.875C200.494 137.875 200.875 137.494 200.875 137.025C200.875 136.556 200.494 136.175 200.025 136.175C199.556 136.175 199.175 136.556 199.175 137.025C199.175 137.494 199.556 137.875 200.025 137.875Z" fill="#D0D0D0"/>
<path d="M197.85 136.15C198.319 136.15 198.7 135.769 198.7 135.3C198.7 134.831 198.319 134.45 197.85 134.45C197.381 134.45 197 134.831 197 135.3C197 135.769 197.381 136.15 197.85 136.15Z" fill="#D0D0D0"/>
<path d="M199.7 134.5C199.824 134.5 199.925 134.399 199.925 134.275C199.925 134.151 199.824 134.05 199.7 134.05C199.576 134.05 199.475 134.151 199.475 134.275C199.475 134.399 199.576 134.5 199.7 134.5Z" fill="#D0D0D0"/>
<path d="M200.375 134.5C200.499 134.5 200.6 134.399 200.6 134.275C200.6 134.151 200.499 134.05 200.375 134.05C200.251 134.05 200.15 134.151 200.15 134.275C200.15 134.399 200.251 134.5 200.375 134.5Z" fill="#D0D0D0"/>
<path d="M200.575 135.1C200.699 135.1 200.8 134.999 200.8 134.875C200.8 134.751 200.699 134.65 200.575 134.65C200.451 134.65 200.35 134.751 200.35 134.875C200.35 134.999 200.451 135.1 200.575 135.1Z" fill="#D0D0D0"/>
<path d="M200.025 135.55C200.149 135.55 200.25 135.449 200.25 135.325C200.25 135.201 200.149 135.1 200.025 135.1C199.901 135.1 199.8 135.201 199.8 135.325C199.8 135.449 199.901 135.55 200.025 135.55Z" fill="#D0D0D0"/>
<path d="M199.5 135.1C199.624 135.1 199.725 134.999 199.725 134.875C199.725 134.751 199.624 134.65 199.5 134.65C199.376 134.65 199.275 134.751 199.275 134.875C199.275 134.999 199.376 135.1 199.5 135.1Z" fill="#D0D0D0"/>
</svg>
